<?xml version="1.0" standalone="no"?>
<!DOCTYPE svg PUBLIC "-//W3C//DTD SVG 20010904//EN"
 "http://www.w3.org/TR/2001/REC-SVG-20010904/DTD/svg10.dtd">
<svg version="1.0" xmlns="http://www.w3.org/2000/svg"
 width="500.000000pt" height="500.000000pt" viewBox="0 0 500.000000 500.000000"
 preserveAspectRatio="xMidYMid meet">

<g transform="translate(0.000000,500.000000) scale(0.100000,-0.100000)"
fill="#000000" stroke="none">
<path d="M1117 3193 c-4 -3 -7 -285 -7 -625 l0 -618 360 0 360 0 0 110 0 110
-225 0 -225 0 0 160 0 160 210 0 210 0 0 110 0 110 -210 0 -210 0 0 135 0 135
225 0 225 0 0 110 0 110 -353 0 c-195 0 -357 -3 -360 -7z"/>
<path d="M2550 2575 l0 -625 122 0 121 0 -7 433 c-3 237 -9 459 -12 492 -4 33
-4 57 0 54 3 -3 73 -224 155 -490 l149 -484 123 0 123 0 161 490 161 490 -4
-493 -4 -492 126 0 126 0 0 625 0 625 -183 0 -182 0 -155 -471 c-85 -259 -157
-472 -160 -474 -4 -2 -57 161 -120 363 -62 202 -128 415 -147 475 l-34 107
-179 0 -180 0 0 -625z"/>
</g>
</svg>
